# xmcd
#
# Track frame offsets: 
#        150
#        37580
#        87485
#        112625
#        131587
#        146170
#        176565
#        198180
#        256565
#        282910
#
# Disc length: 4115 seconds
#
# Revision: 0
# Processed by: cddbd v1.5.2PL0 Copyright (c) Steve Scherf et al.
# Submitted via: ExactAudioCopy v0.95b4
#
DISCID=7c10110a
DTITLE=Eric Clapton - 1995-04-28 - Addicted To Blues - CD2
DYEAR=1995
DGENRE=Blues
TTITLE0=Everyday I Have The Blues
TTITLE1=Early In The Morning
TTITLE2=Before You Accuse Me
TTITLE3=Someday After A While
TTITLE4=I'm Tore Down
TTITLE5=Have You Ever Loved A Woman
TTITLE6=Got My Mojo Working
TTITLE7=Five Long Years
TTITLE8=Crossroads
TTITLE9=Ain't Nobody's Business
EXTD=
EXTT0=
EXTT1=
EXTT2=
EXTT3=
EXTT4=
EXTT5=
EXTT6=
EXTT7=
EXTT8=
EXTT9=
PLAYORDER=
